<svg xmlns="http://www.w3.org/2000/svg" version="1.1" xmlns:xlink="http://www.w3.org/1999/xlink" xmlns:svgjs="http://svgjs.dev/svgjs" viewBox="0 0 8.462932213988092 9.734048827043415"><g transform="matrix(1,0,0,1,0.7559851499627959,7.0073261770806194)"><g><path d=" M 1.0335 0.008999999999999897 L 1.0335 1.0739999999999998 L 0.741 1.0739999999999998 L 0.741 0.6569999999999998 L 0.384 0.6569999999999998 L 0.384 1.0739999999999998 L 0.0915 1.0739999999999998 L 0.0915 0.008999999999999897 L 0.384 0.008999999999999897 L 0.384 0.4019999999999998 L 0.741 0.4019999999999998 L 0.741 0.008999999999999897 L 1.0335 0.008999999999999897 M 1.4775 0.008999999999999897 L 1.8045 0.008999999999999897 L 2.1435000000000004 1.0739999999999998 L 1.8465000000000003 1.0739999999999998 L 1.782 0.8654999999999998 L 1.4985000000000002 0.8654999999999998 L 1.4355000000000002 1.0739999999999998 L 1.1370000000000002 1.0739999999999998 L 1.4775 0.008999999999999897 M 1.7355 0.6704999999999999 L 1.641 0.2954999999999999 L 1.5420000000000003 0.6704999999999999 L 1.7355 0.6704999999999999 M 2.24698828125 1.0739999999999998 L 2.24698828125 0.008999999999999897 L 2.73598828125 0.008999999999999897 Q 2.8139882812500003 0.008999999999999897 2.87998828125 0.04049999999999976 Q 2.94598828125 0.07199999999999984 2.99398828125 0.12524999999999986 Q 3.04198828125 0.17849999999999977 3.06823828125 0.24449999999999983 Q 3.0944882812500003 0.3104999999999998 3.0944882812500003 0.3779999999999998 Q 3.0944882812500003 0.4394999999999998 3.0764882812500005 0.49649999999999983 Q 3.0584882812500003 0.5534999999999999 3.0239882812500003 0.6007499999999999 Q 2.9894882812500003 0.6479999999999999 2.9414882812500003 0.6824999999999999 L 3.1664882812500004 1.0739999999999998 L 2.84548828125 1.0739999999999998 L 2.65798828125 0.7469999999999999 L 2.53948828125 0.7469999999999999 L 2.53948828125 1.0739999999999998 L 2.24698828125 1.0739999999999998 M 2.53948828125 0.4919999999999999 L 2.7239882812500005 0.4919999999999999 Q 2.7419882812500003 0.4919999999999999 2.75848828125 0.4784999999999998 Q 2.77498828125 0.46499999999999986 2.78623828125 0.4394999999999998 Q 2.79748828125 0.4139999999999998 2.79748828125 0.3779999999999998 Q 2.79748828125 0.3404999999999998 2.78473828125 0.31574999999999986 Q 2.7719882812500005 0.2909999999999998 2.7532382812500003 0.27749999999999986 Q 2.73448828125 0.2639999999999998 2.71648828125 0.2639999999999998 L 2.53948828125 0.2639999999999998 L 2.53948828125 0.4919999999999999 M 3.4379472656250005 0.008999999999999897 L 3.6464472656250004 0.7364999999999998 L 3.8519472656250002 0.008999999999999897 L 4.159447265625 0.008999999999999897 L 3.7919472656250006 1.0739999999999998 L 3.5009472656250002 1.0739999999999998 L 3.1289472656250004 0.008999999999999897 L 3.4379472656250005 0.008999999999999897 M 5.014442871093751 0.8189999999999998 L 5.014442871093751 1.0739999999999998 L 4.25544287109375 1.0739999999999998 L 4.25544287109375 0.008999999999999897 L 5.00094287109375 0.008999999999999897 L 5.00094287109375 0.2639999999999998 L 4.547942871093751 0.2639999999999998 L 4.547942871093751 0.4139999999999998 L 4.93494287109375 0.4139999999999998 L 4.93494287109375 0.6509999999999998 L 4.547942871093751 0.6509999999999998 L 4.547942871093751 0.8189999999999998 L 5.014442871093751 0.8189999999999998 M 5.8109201660156256 0.3569999999999999 Q 5.8109201660156256 0.3569999999999999 5.7854201660156255 0.34199999999999986 Q 5.759920166015625 0.32699999999999985 5.717920166015626 0.3082499999999998 Q 5.675920166015625 0.28949999999999987 5.626420166015626 0.27449999999999986 Q 5.576920166015626 0.25949999999999984 5.5289201660156255 0.25949999999999984 Q 5.491420166015625 0.25949999999999984 5.467420166015625 0.27149999999999985 Q 5.443420166015625 0.28349999999999986 5.443420166015625 0.31199999999999983 Q 5.443420166015625 0.33899999999999986 5.467420166015625 0.3554999999999998 Q 5.491420166015625 0.3719999999999998 5.535670166015625 0.38549999999999984 Q 5.579920166015626 0.3989999999999998 5.641420166015625 0.41849999999999987 Q 5.7404201660156255 0.4484999999999998 5.812420166015626 0.4874999999999998 Q 5.884420166015625 0.5264999999999999 5.923420166015625 0.5872499999999998 Q 5.962420166015625 0.6479999999999999 5.962420166015625 0.7484999999999998 Q 5.962420166015625 0.8444999999999998 5.9279201660156255 0.9097499999999998 Q 5.893420166015625 0.9749999999999999 5.834920166015626 1.0139999999999998 Q 5.776420166015625 1.053 5.704420166015625 1.07025 Q 5.632420166015625 1.0875 5.557420166015625 1.0875 Q 5.4809201660156255 1.0875 5.397670166015625 1.0717499999999998 Q 5.314420166015625 1.0559999999999998 5.236420166015625 1.0282499999999999 Q 5.158420166015625 1.0005 5.093920166015625 0.9629999999999999 L 5.219920166015625 0.7064999999999999 Q 5.219920166015625 0.7064999999999999 5.249920166015626 0.7244999999999998 Q 5.279920166015625 0.7424999999999998 5.329420166015625 0.7649999999999999 Q 5.378920166015625 0.7874999999999999 5.439670166015625 0.8054999999999999 Q 5.500420166015625 0.8234999999999999 5.561920166015625 0.8234999999999999 Q 5.609920166015625 0.8234999999999999 5.628670166015625 0.8107499999999999 Q 5.647420166015626 0.7979999999999998 5.647420166015626 0.7769999999999999 Q 5.647420166015626 0.7454999999999998 5.614420166015625 0.7282499999999998 Q 5.581420166015625 0.7109999999999999 5.5281701660156255 0.6952499999999998 Q 5.474920166015625 0.6794999999999998 5.4104201660156255 0.6584999999999999 Q 5.3174201660156255 0.6269999999999998 5.257420166015625 0.5872499999999998 Q 5.197420166015625 0.5474999999999999 5.168920166015625 0.4927499999999998 Q 5.140420166015625 0.43799999999999983 5.140420166015625 0.3599999999999999 Q 5.140420166015625 0.24149999999999983 5.195920166015625 0.1619999999999998 Q 5.251420166015625 0.0824999999999998 5.3421701660156256 0.04124999999999979 Q 5.432920166015625 -2.220446049250313e-16 5.537920166015625 -2.220446049250313e-16 Q 5.615920166015625 -2.220446049250313e-16 5.688670166015625 0.018749999999999822 Q 5.7614201660156255 0.03749999999999987 5.825170166015625 0.06449999999999978 Q 5.888920166015625 0.0914999999999998 5.936920166015625 0.11549999999999983 L 5.8109201660156256 0.3569999999999999 M 6.9359267578125 0.2639999999999998 L 6.6299267578125 0.2639999999999998 L 6.6299267578125 1.0739999999999998 L 6.3374267578125 1.0739999999999998 L 6.3374267578125 0.2639999999999998 L 6.0299267578124995 0.2639999999999998 L 6.0299267578124995 0.008999999999999897 L 6.9359267578125 0.008999999999999897 L 6.9359267578125 0.2639999999999998" fill="#ffffff" fill-rule="nonzero"></path></g><g><path d=" M 0.7882521972656251 1.4337374999999997 L 0.9622521972656252 1.7202374999999996 L 1.137752197265625 1.4337374999999997 L 1.1947521972656252 1.4337374999999997 L 0.9885021972656252 1.7682374999999997 L 0.9885021972656252 1.9662374999999996 L 0.9360021972656252 1.9662374999999996 L 0.9360021972656252 1.7667374999999996 L 0.7305021972656252 1.4337374999999997 L 0.7882521972656251 1.4337374999999997 M 1.4602551269531252 1.9699874999999996 Q 1.4040051269531253 1.9699874999999996 1.3582551269531251 1.9474874999999996 Q 1.3125051269531252 1.9249874999999996 1.2795051269531252 1.8863624999999997 Q 1.2465051269531253 1.8477374999999996 1.2285051269531253 1.7993624999999995 Q 1.2105051269531253 1.7509874999999997 1.2105051269531253 1.6999874999999998 Q 1.2105051269531253 1.6467374999999995 1.229255126953125 1.5983624999999997 Q 1.2480051269531252 1.5499874999999996 1.2821301269531251 1.5121124999999997 Q 1.3162551269531253 1.4742374999999996 1.3620051269531253 1.4521124999999997 Q 1.4077551269531252 1.4299874999999997 1.4610051269531252 1.4299874999999997 Q 1.5172551269531251 1.4299874999999997 1.5630051269531253 1.4532374999999997 Q 1.6087551269531253 1.4764874999999997 1.6413801269531252 1.5154874999999997 Q 1.674005126953125 1.5544874999999996 1.6920051269531253 1.6024874999999996 Q 1.7100051269531251 1.6504874999999997 1.7100051269531251 1.7007374999999996 Q 1.7100051269531251 1.7539874999999996 1.6912551269531253 1.8023624999999996 Q 1.6725051269531253 1.8507374999999997 1.638755126953125 1.8886124999999996 Q 1.6050051269531251 1.9264874999999997 1.5592551269531252 1.9482374999999996 Q 1.5135051269531252 1.9699874999999996 1.4602551269531252 1.9699874999999996 M 1.2630051269531253 1.6999874999999998 Q 1.2630051269531253 1.7434874999999996 1.2772551269531252 1.7836124999999996 Q 1.2915051269531252 1.8237374999999996 1.3177551269531251 1.8548624999999996 Q 1.3440051269531252 1.8859874999999997 1.3803801269531253 1.9043624999999997 Q 1.416755126953125 1.9227374999999995 1.4602551269531252 1.9227374999999995 Q 1.5060051269531252 1.9227374999999995 1.5423801269531252 1.9036124999999997 Q 1.5787551269531253 1.8844874999999996 1.6046301269531251 1.8526124999999996 Q 1.6305051269531252 1.8207374999999997 1.6440051269531253 1.7809874999999997 Q 1.6575051269531254 1.7412374999999995 1.6575051269531254 1.6999874999999998 Q 1.6575051269531254 1.6564874999999997 1.6432551269531253 1.6167374999999997 Q 1.6290051269531252 1.5769874999999995 1.6023801269531253 1.5454874999999997 Q 1.5757551269531251 1.5139874999999996 1.5397551269531253 1.4959874999999996 Q 1.5037551269531253 1.4779874999999996 1.4602551269531252 1.4779874999999996 Q 1.4152551269531253 1.4779874999999996 1.3788801269531252 1.4967374999999996 Q 1.3425051269531252 1.5154874999999997 1.3166301269531253 1.5473624999999998 Q 1.2907551269531252 1.5792374999999996 1.2768801269531251 1.6189874999999996 Q 1.2630051269531253 1.6587374999999995 1.2630051269531253 1.6999874999999998 M 2.0332375488281254 1.9699874999999996 Q 1.9702375488281252 1.9699874999999996 1.9267375488281253 1.9474874999999996 Q 1.8832375488281252 1.9249874999999996 1.8577375488281254 1.8871124999999997 Q 1.8322375488281253 1.8492374999999996 1.8206125488281253 1.8012374999999996 Q 1.8089875488281253 1.7532374999999996 1.8089875488281253 1.7022374999999996 L 1.8089875488281253 1.4337374999999997 L 1.8607375488281253 1.4337374999999997 L 1.8607375488281253 1.7022374999999996 Q 1.8607375488281253 1.7434874999999996 1.8693625488281254 1.7832374999999996 Q 1.8779875488281252 1.8229874999999995 1.8974875488281253 1.8544874999999996 Q 1.9169875488281254 1.8859874999999997 1.9499875488281253 1.9043624999999997 Q 1.9829875488281252 1.9227374999999995 2.0324875488281253 1.9227374999999995 Q 2.083487548828125 1.9227374999999995 2.1168625488281254 1.9036124999999997 Q 2.1502375488281253 1.8844874999999996 2.169362548828125 1.8529874999999996 Q 2.1884875488281255 1.8214874999999997 2.1967375488281253 1.7821124999999995 Q 2.204987548828125 1.7427374999999996 2.204987548828125 1.7022374999999996 L 2.204987548828125 1.4337374999999997 L 2.2574875488281254 1.4337374999999997 L 2.2574875488281254 1.7022374999999996 Q 2.2574875488281254 1.7554874999999996 2.2454875488281254 1.8042374999999997 Q 2.2334875488281254 1.8529874999999996 2.2068625488281253 1.8897374999999996 Q 2.180237548828125 1.9264874999999997 2.1374875488281253 1.9482374999999996 Q 2.0947375488281255 1.9699874999999996 2.0332375488281254 1.9699874999999996 M 2.3902412109375 1.9662374999999996 L 2.3902412109375 1.4337374999999997 L 2.6152412109375 1.4337374999999997 Q 2.6497412109375 1.4337374999999997 2.6782412109375002 1.4479874999999995 Q 2.7067412109375 1.4622374999999996 2.7281162109375003 1.4866124999999997 Q 2.7494912109375003 1.5109874999999997 2.7611162109375003 1.5406124999999995 Q 2.7727412109375003 1.5702374999999997 2.7727412109375003 1.6009874999999996 Q 2.7727412109375003 1.6392374999999997 2.7581162109375 1.6729874999999996 Q 2.7434912109375 1.7067374999999996 2.7168662109375 1.7299874999999996 Q 2.6902412109375002 1.7532374999999996 2.6542412109375 1.7607374999999996 L 2.7847412109375003 1.9662374999999996 L 2.7254912109375002 1.9662374999999996 L 2.6002412109375 1.7697374999999997 L 2.4427412109375 1.7697374999999997 L 2.4427412109375 1.9662374999999996 L 2.3902412109375 1.9662374999999996 M 2.4427412109375 1.7232374999999998 L 2.6167412109375 1.7232374999999998 Q 2.6482412109375 1.7232374999999998 2.6714912109375 1.7059874999999995 Q 2.6947412109375 1.6887374999999996 2.7074912109375 1.6606124999999996 Q 2.7202412109375 1.6324874999999996 2.7202412109375 1.6009874999999996 Q 2.7202412109375 1.5687374999999997 2.7056162109375 1.5413624999999995 Q 2.6909912109375003 1.5139874999999996 2.6666162109375002 1.4971124999999996 Q 2.6422412109375 1.4802374999999997 2.6122412109375 1.4802374999999997 L 2.4427412109375 1.4802374999999997 L 2.4427412109375 1.7232374999999998 M 3.086256225585937 1.9662374999999996 L 3.086256225585937 1.4337374999999997 L 3.3067562255859375 1.4337374999999997 Q 3.341256225585937 1.4337374999999997 3.3701312255859373 1.4479874999999995 Q 3.3990062255859375 1.4622374999999996 3.4200062255859374 1.4866124999999997 Q 3.4410062255859373 1.5109874999999997 3.4530062255859373 1.5406124999999995 Q 3.4650062255859373 1.5702374999999997 3.4650062255859373 1.6009874999999996 Q 3.4650062255859373 1.6444874999999997 3.4458812255859375 1.6831124999999996 Q 3.426756225585937 1.7217374999999997 3.392256225585937 1.7457374999999997 Q 3.3577562255859372 1.7697374999999997 3.3112562255859372 1.7697374999999997 L 3.1387562255859374 1.7697374999999997 L 3.1387562255859374 1.9662374999999996 L 3.086256225585937 1.9662374999999996 M 3.1387562255859374 1.7232374999999998 L 3.309006225585937 1.7232374999999998 Q 3.3405062255859375 1.7232374999999998 3.3637562255859375 1.7059874999999995 Q 3.3870062255859374 1.6887374999999996 3.3997562255859375 1.6609874999999996 Q 3.412506225585937 1.6332374999999997 3.412506225585937 1.6009874999999996 Q 3.412506225585937 1.5679874999999996 3.3975062255859374 1.5402374999999997 Q 3.3825062255859373 1.5124874999999998 3.3581312255859372 1.4963624999999996 Q 3.333756225585937 1.4802374999999997 3.3045062255859374 1.4802374999999997 L 3.1387562255859374 1.4802374999999997 L 3.1387562255859374 1.7232374999999998 M 3.688504760742187 1.4337374999999997 L 3.7327547607421874 1.4337374999999997 L 3.9540047607421873 1.9662374999999996 L 3.898504760742187 1.9662374999999996 L 3.829504760742187 1.7997374999999995 L 3.5902547607421873 1.7997374999999995 L 3.522004760742187 1.9662374999999996 L 3.465754760742187 1.9662374999999996 L 3.688504760742187 1.4337374999999997 M 3.817504760742187 1.7584874999999995 L 3.710254760742187 1.4952374999999996 L 3.6015047607421873 1.7584874999999995 L 3.817504760742187 1.7584874999999995 M 4.341766479492187 1.5334874999999997 Q 4.330516479492187 1.5207374999999996 4.315516479492187 1.5106124999999997 Q 4.300516479492187 1.5004874999999998 4.281766479492187 1.4929874999999997 Q 4.263016479492187 1.4854874999999996 4.241641479492187 1.4809874999999997 Q 4.220266479492187 1.4764874999999997 4.196266479492187 1.4764874999999997 Q 4.126516479492187 1.4764874999999997 4.093891479492187 1.5031124999999996 Q 4.061266479492187 1.5297374999999995 4.061266479492187 1.5754874999999997 Q 4.061266479492187 1.6069874999999996 4.076641479492187 1.6249874999999996 Q 4.092016479492187 1.6429874999999996 4.125016479492187 1.6542374999999996 Q 4.158016479492187 1.6654874999999996 4.209016479492187 1.6774874999999996 Q 4.266016479492187 1.6894874999999996 4.307266479492187 1.7059874999999995 Q 4.348516479492187 1.7224874999999997 4.371016479492187 1.7506124999999997 Q 4.393516479492187 1.7787374999999996 4.393516479492187 1.8267374999999997 Q 4.393516479492187 1.8634874999999997 4.379266479492187 1.8904874999999997 Q 4.365016479492187 1.9174874999999996 4.339516479492187 1.9354874999999996 Q 4.314016479492187 1.9534874999999996 4.278766479492187 1.9621124999999997 Q 4.243516479492187 1.9707374999999996 4.201516479492187 1.9707374999999996 Q 4.160266479492187 1.9707374999999996 4.122391479492187 1.9621124999999997 Q 4.084516479492187 1.9534874999999996 4.050766479492187 1.9366124999999996 Q 4.017016479492187 1.9197374999999997 3.987766479492187 1.8934874999999995 L 4.014016479492187 1.8507374999999997 Q 4.028266479492187 1.8657374999999996 4.048141479492187 1.8788624999999997 Q 4.068016479492187 1.8919874999999997 4.092391479492187 1.9024874999999997 Q 4.1167664794921865 1.9129874999999996 4.144891479492187 1.9186124999999996 Q 4.173016479492187 1.9242374999999996 4.203016479492187 1.9242374999999996 Q 4.266766479492187 1.9242374999999996 4.302391479492187 1.9009874999999996 Q 4.338016479492187 1.8777374999999996 4.338016479492187 1.8319874999999997 Q 4.338016479492187 1.7989874999999995 4.320016479492187 1.7791124999999997 Q 4.302016479492187 1.7592374999999996 4.266016479492187 1.7464874999999997 Q 4.230016479492187 1.7337374999999997 4.177516479492187 1.7217374999999997 Q 4.122016479492187 1.7089874999999997 4.083766479492187 1.6932374999999995 Q 4.045516479492187 1.6774874999999996 4.026391479492187 1.6516124999999997 Q 4.007266479492187 1.6257374999999996 4.007266479492187 1.5829874999999995 Q 4.007266479492187 1.5334874999999997 4.031641479492187 1.4993624999999997 Q 4.056016479492187 1.4652374999999997 4.098766479492187 1.4476124999999995 Q 4.141516479492187 1.4299874999999997 4.197016479492187 1.4299874999999997 Q 4.232266479492187 1.4299874999999997 4.262641479492187 1.4371124999999996 Q 4.293016479492187 1.4442374999999996 4.318891479492187 1.4577374999999995 Q 4.344766479492187 1.4712374999999995 4.367266479492187 1.4914874999999996 L 4.341766479492187 1.5334874999999997 M 4.804512451171875 1.5334874999999997 Q 4.793262451171874 1.5207374999999996 4.778262451171875 1.5106124999999997 Q 4.763262451171875 1.5004874999999998 4.744512451171874 1.4929874999999997 Q 4.7257624511718745 1.4854874999999996 4.704387451171875 1.4809874999999997 Q 4.683012451171875 1.4764874999999997 4.659012451171875 1.4764874999999997 Q 4.589262451171875 1.4764874999999997 4.556637451171874 1.5031124999999996 Q 4.524012451171875 1.5297374999999995 4.524012451171875 1.5754874999999997 Q 4.524012451171875 1.6069874999999996 4.539387451171875 1.6249874999999996 Q 4.554762451171875 1.6429874999999996 4.587762451171875 1.6542374999999996 Q 4.620762451171875 1.6654874999999996 4.671762451171875 1.6774874999999996 Q 4.728762451171875 1.6894874999999996 4.7700124511718744 1.7059874999999995 Q 4.811262451171875 1.7224874999999997 4.833762451171875 1.7506124999999997 Q 4.856262451171875 1.7787374999999996 4.856262451171875 1.8267374999999997 Q 4.856262451171875 1.8634874999999997 4.8420124511718745 1.8904874999999997 Q 4.827762451171875 1.9174874999999996 4.802262451171875 1.9354874999999996 Q 4.776762451171875 1.9534874999999996 4.741512451171875 1.9621124999999997 Q 4.706262451171875 1.9707374999999996 4.664262451171875 1.9707374999999996 Q 4.623012451171875 1.9707374999999996 4.5851374511718745 1.9621124999999997 Q 4.547262451171875 1.9534874999999996 4.5135124511718745 1.9366124999999996 Q 4.479762451171875 1.9197374999999997 4.450512451171875 1.8934874999999995 L 4.476762451171875 1.8507374999999997 Q 4.4910124511718745 1.8657374999999996 4.510887451171874 1.8788624999999997 Q 4.530762451171875 1.8919874999999997 4.555137451171875 1.9024874999999997 Q 4.579512451171874 1.9129874999999996 4.6076374511718745 1.9186124999999996 Q 4.635762451171875 1.9242374999999996 4.665762451171875 1.9242374999999996 Q 4.729512451171875 1.9242374999999996 4.765137451171875 1.9009874999999996 Q 4.800762451171875 1.8777374999999996 4.800762451171875 1.8319874999999997 Q 4.800762451171875 1.7989874999999995 4.782762451171875 1.7791124999999997 Q 4.764762451171875 1.7592374999999996 4.728762451171875 1.7464874999999997 Q 4.692762451171875 1.7337374999999997 4.640262451171875 1.7217374999999997 Q 4.5847624511718745 1.7089874999999997 4.546512451171875 1.6932374999999995 Q 4.508262451171875 1.6774874999999996 4.4891374511718745 1.6516124999999997 Q 4.470012451171875 1.6257374999999996 4.470012451171875 1.5829874999999995 Q 4.470012451171875 1.5334874999999997 4.494387451171875 1.4993624999999997 Q 4.518762451171875 1.4652374999999997 4.5615124511718745 1.4476124999999995 Q 4.604262451171874 1.4299874999999997 4.659762451171875 1.4299874999999997 Q 4.695012451171875 1.4299874999999997 4.7253874511718745 1.4371124999999996 Q 4.755762451171875 1.4442374999999996 4.781637451171875 1.4577374999999995 Q 4.807512451171875 1.4712374999999995 4.830012451171875 1.4914874999999996 L 4.804512451171875 1.5334874999999997 M 4.956008422851562 1.9662374999999996 L 4.956008422851562 1.4337374999999997 L 5.008508422851563 1.4337374999999997 L 5.008508422851563 1.9662374999999996 L 4.956008422851562 1.9662374999999996 M 5.363997802734375 1.9699874999999996 Q 5.307747802734375 1.9699874999999996 5.261997802734375 1.9474874999999996 Q 5.216247802734375 1.9249874999999996 5.183247802734376 1.8863624999999997 Q 5.150247802734375 1.8477374999999996 5.132247802734375 1.7993624999999995 Q 5.114247802734376 1.7509874999999997 5.114247802734376 1.6999874999999998 Q 5.114247802734376 1.6467374999999995 5.1329978027343754 1.5983624999999997 Q 5.151747802734375 1.5499874999999996 5.185872802734376 1.5121124999999997 Q 5.219997802734375 1.4742374999999996 5.265747802734375 1.4521124999999997 Q 5.311497802734375 1.4299874999999997 5.364747802734375 1.4299874999999997 Q 5.420997802734376 1.4299874999999997 5.466747802734376 1.4532374999999997 Q 5.512497802734376 1.4764874999999997 5.545122802734375 1.5154874999999997 Q 5.577747802734375 1.5544874999999996 5.595747802734375 1.6024874999999996 Q 5.613747802734375 1.6504874999999997 5.613747802734375 1.7007374999999996 Q 5.613747802734375 1.7539874999999996 5.594997802734375 1.8023624999999996 Q 5.576247802734375 1.8507374999999997 5.542497802734375 1.8886124999999996 Q 5.5087478027343755 1.9264874999999997 5.4629978027343755 1.9482374999999996 Q 5.417247802734376 1.9699874999999996 5.363997802734375 1.9699874999999996 M 5.166747802734375 1.6999874999999998 Q 5.166747802734375 1.7434874999999996 5.1809978027343755 1.7836124999999996 Q 5.195247802734375 1.8237374999999996 5.221497802734375 1.8548624999999996 Q 5.247747802734375 1.8859874999999997 5.284122802734375 1.9043624999999997 Q 5.3204978027343754 1.9227374999999995 5.363997802734375 1.9227374999999995 Q 5.409747802734375 1.9227374999999995 5.446122802734376 1.9036124999999997 Q 5.482497802734375 1.8844874999999996 5.5083728027343755 1.8526124999999996 Q 5.5342478027343756 1.8207374999999997 5.547747802734375 1.7809874999999997 Q 5.561247802734376 1.7412374999999995 5.561247802734376 1.6999874999999998 Q 5.561247802734376 1.6564874999999997 5.546997802734375 1.6167374999999997 Q 5.5327478027343755 1.5769874999999995 5.506122802734375 1.5454874999999997 Q 5.479497802734375 1.5139874999999996 5.443497802734376 1.4959874999999996 Q 5.407497802734375 1.4779874999999996 5.363997802734375 1.4779874999999996 Q 5.318997802734375 1.4779874999999996 5.282622802734375 1.4967374999999996 Q 5.246247802734375 1.5154874999999997 5.220372802734375 1.5473624999999998 Q 5.194497802734375 1.5792374999999996 5.1806228027343755 1.6189874999999996 Q 5.166747802734375 1.6587374999999995 5.166747802734375 1.6999874999999998 M 5.772730224609376 1.5304874999999996 L 5.772730224609376 1.9662374999999996 L 5.7202302246093755 1.9662374999999996 L 5.7202302246093755 1.4337374999999997 L 5.763730224609375 1.4337374999999997 L 6.113230224609375 1.8777374999999996 L 6.113230224609375 1.4344874999999995 L 6.1657302246093755 1.4344874999999995 L 6.1657302246093755 1.9662374999999996 L 6.116980224609375 1.9662374999999996 L 5.772730224609376 1.5304874999999996" fill="#eda0a0" fill-rule="nonzero"></path></g><g clip-path="url(&quot;#SvgjsClipPath1001&quot;)"><g clip-path="url(&quot;#a425d168d-0d4a-428b-ada5-ca6b45ad73b3939be618-7a20-4574-ac95-c37ff0c735b5&quot;)"><path d=" M 3.8791141434561887 -2.4096882976733385 C 3.885550344614805 -2.4185319328531163 3.8918882831603128 -2.427719487178775 3.8982262217058197 -2.4371526980372047 L 3.9227918749829813 -2.466189300210809 C 3.936548640818191 -2.4447680505531246 3.9555133251481593 -2.4283090628574264 3.9768854434992895 -2.4207919729546155 C 3.94446905752442 -2.415692327491538 3.911848548496049 -2.411987686767713 3.8791141434561913 -2.4096882976733385 M 4.177390305547478 -2.4783247329297264 L 4.179109901276879 -2.4796512782066933 C 4.1832860623339965 -2.4804373791115624 4.1874622233911145 -2.4816656617754203 4.19173664706134 -2.4842696210227997 C 4.2264724807952465 -2.505101295001832 4.257965648296567 -2.527062989031614 4.287198775696389 -2.550940804017015 C 4.2984989762038825 -2.555804803365892 4.308669156660628 -2.558261368693609 4.3169232161617535 -2.557671793014957 C 4.319085536567117 -2.55191554976259 4.322939303511021 -2.5469484723682245 4.327977760136475 -2.5434237141142035 C 4.278753050136981 -2.514783473570346 4.2270358690655225 -2.490659751906807 4.173459801023133 -2.4713480873990132 C 4.174835477606654 -2.47370639011362 4.1762602854967295 -2.475966430215119 4.177390305547478 -2.4783247329297264 M 4.069547087660741 -2.44801071678571 C 4.0708245016311535 -2.4494846559823396 4.071610602536023 -2.4510568577920777 4.072888016506435 -2.452530796988708 C 4.072740622586773 -2.450025100354437 4.072445834747446 -2.447912454172601 4.072347572134337 -2.445357626231776 C 4.072249309521229 -2.4434415052761578 4.072642359973663 -2.4418693034664196 4.072888016506435 -2.4400514451239097 C 4.067532704092014 -2.438724899846943 4.062128260371038 -2.4375948797961935 4.056723816650063 -2.4363665971323356 C 4.0609982403202896 -2.4398549198976927 4.065370926603624 -2.4436380305023753 4.069547087660741 -2.44801071678571 M 4.728790959006636 -3.075564895404067 C 4.720683543543372 -3.0453223470765742 4.711191197119335 -3.0154681798258456 4.700343932511683 -2.986096786168645 C 4.698653306796561 -2.9922577103379475 4.696735880900225 -2.998354141392961 4.694595569644828 -3.0043736322068533 C 4.687176742355125 -3.025205306185886 4.656027493999685 -3.0278092654332656 4.649640424147623 -3.0043736322068537 C 4.6296439823800135 -2.930283621922936 4.602474369855473 -2.864103751994264 4.56253061762681 -2.80131394221784 C 4.516347189465747 -2.762401947426817 4.4603866313003735 -2.7261921744962816 4.412385344796801 -2.6877223614642474 C 4.412581870023018 -2.6886558562887797 4.412974920475453 -2.6895402198067573 4.41317144570167 -2.690424583324735 C 4.422408131333883 -2.7198051046442195 4.381825672120012 -2.744125101388609 4.360797472914763 -2.7209351246949693 C 4.311715297666995 -2.666792424872106 4.260471344930837 -2.6199211584192827 4.201906827518085 -2.578896517446424 L 4.200924201386998 -2.5866101325754527 C 4.198025454300294 -2.6095053214297663 4.172378912278937 -2.630779177167788 4.150662874781927 -2.621345966309358 C 4.1441317816980305 -2.6215756825749232 4.137651488646696 -2.620120577607783 4.1318455843716215 -2.6171206739456863 C 4.113028293961316 -2.606999624795496 4.094161872244456 -2.59692770695186 4.075246319221042 -2.586855789108224 C 4.078390722840519 -2.6069013621823878 4.078587248066736 -2.6286665309859525 4.0764746018849 -2.654460466926971 C 4.0747550061555 -2.676323898343645 4.054905958307553 -2.69661512795058 4.031421193774587 -2.6888523815149967 C 4.010001024014716 -2.6820849548635257 3.9895540271445 -2.6725551348359695 3.9705966362603364 -2.6605036176331534 C 3.9667060688491342 -2.6624299631695965 3.962408642252338 -2.6633905644088802 3.9580681530889845 -2.6633041021067494 C 4.148402834680429 -2.897169121305323 4.407324820221706 -3.0516870804186658 4.728790959006636 -3.075564895404067 M 3.764441673958401 -3.481979063221419 C 3.5491974199439156 -3.6075586827742665 3.3452042351303697 -3.7046421445256073 3.1994807798902505 -3.9182650654238 C 3.0655979695297226 -4.1143481098820995 3.018726703076899 -4.335340726763441 3.022313288455365 -4.56552089797044 C 3.0555476789119957 -4.545116858863679 3.088044109279667 -4.523534509496951 3.1197406693525824 -4.5008149672384 C 3.1234255173441596 -4.464752588227525 3.1272577592553974 -4.428739340523207 3.1316304455387316 -4.392726092818888 C 3.13320264734847 -4.378625407837799 3.145534605293605 -4.364377328937045 3.1616005425368683 -4.3698800352711284 C 3.1846922566174 -4.378035832159146 3.2046886983850085 -4.379608033968884 3.2222285748249018 -4.376365367736299 C 3.248562955138018 -4.349687068277302 3.2767151937936445 -4.322910506205196 3.3035408871723044 -4.295740893680657 C 3.3452042351303697 -4.192516018610026 3.3365079938702547 -4.023848243209038 3.338031064373439 -3.9803670369084627 C 3.3385545835015 -3.972952738747813 3.3422332837094992 -3.9661191599655203 3.348134084250925 -3.96159959776739 C 3.3540348847923505 -3.9570800355692595 3.3615908759632394 -3.9553086994578504 3.368885524889553 -3.956734878455834 C 3.3734591448012314 -3.955805290935779 3.3781866614615352 -3.9559567060601304 3.382691422031318 -3.9571770602148226 L 3.386179744796675 -3.841227176746622 C 3.387014977008098 -3.8106183727632796 3.427941355367848 -3.8065896056258253 3.4378658792918215 -3.834299662522463 C 3.4444494743701006 -3.8525273772541166 3.4507382816090537 -3.871049879825096 3.4572236140742247 -3.8894249884764123 C 3.483028438760119 -3.8543177027246176 3.5101688239138937 -3.820211940946232 3.538585057728177 -3.787182739536874 C 3.5377288393422313 -3.7775995785274774 3.537057253639015 -3.768000817013212 3.5365706741594543 -3.758391793896036 C 3.53583370456114 -3.7410975739889136 3.5479200059735025 -3.7331383023271143 3.560743276984181 -3.7335804840861027 C 3.5621680848742563 -3.694471964068862 3.563199842311897 -3.655216050131959 3.5651159632675156 -3.6159601361950555 C 3.566098589398602 -3.594686280457034 3.596609130768836 -3.5758198587401746 3.6125276740924366 -3.596356744879881 C 3.6298710253061124 -3.618662358055543 3.6446104172724088 -3.640771446004988 3.6568441126044355 -3.6631753217937586 C 3.6574828195896414 -3.662487483501998 3.658219789187956 -3.661947039129901 3.658956758786271 -3.66125920083814 C 3.661118536274661 -3.6554617066647306 3.6633294450696057 -3.649713343797875 3.665442091251442 -3.6439158496244644 C 3.671288716731406 -3.628537750672962 3.6850946138731704 -3.623378963484758 3.697033521365871 -3.6265233671042347 C 3.7111833376535155 -3.613847490013219 3.7257262043935953 -3.6015155320680843 3.7403673337467827 -3.5892818367360584 C 3.7526992916919175 -3.556019942198782 3.7654734313960416 -3.5227089163549516 3.778689752859154 -3.489397890511121 C 3.777215813662524 -3.4838951841770376 3.775889268385558 -3.478294215229845 3.7745135918020365 -3.4727915088957606 C 3.7718069793530526 -3.476499005334159 3.7683816122571256 -3.479623608489955 3.764441673958401 -3.4819790632214187 M 3.6168020977626623 -3.6977146303014474 L 3.616654703843 -3.701743397438902 L 3.617784723893749 -3.701743397438902 C 3.618128643039629 -3.7015468722126847 3.618325168265847 -3.7013012156799125 3.618521693492064 -3.7011046904536955 C 3.618007518611053 -3.6999456872664345 3.6174335483164914 -3.6988141458285835 3.6168020977626623 -3.6977146303014474 M 3.477416581068051 -4.1247639468716155 L 3.4599749672412665 -4.145300833011322 C 3.4558970687972574 -4.162005477239791 3.4496082615583044 -4.177924020563392 3.4416981212030584 -4.193302119514895 C 3.4416981212030584 -4.193842563886992 3.441550727283395 -4.194432139565643 3.441550727283395 -4.19507084655085 L 3.441452464670287 -4.195513028309839 C 3.459778442015049 -4.172323051616199 3.4772691871483876 -4.148445236630798 3.4943177505227374 -4.124125239886409 C 3.4888705745016027 -4.126001740320836 3.4829898469114746 -4.126223977119301 3.477416581068051 -4.1247639468716155 M 3.5222243326455924 -3.95658748453617 C 3.525884880700269 -3.9484868416463086 3.5292606323380653 -3.9402604954221645 3.532345381795783 -3.9319235686459013 C 3.5267444128485903 -3.935510154024366 3.5211434439013973 -3.9390967394028316 3.5156407375673133 -3.9430272439271774 C 3.517851646362258 -3.9474981928236206 3.5199642925440937 -3.9521165356397265 3.5222243326455924 -3.95658748453617 M 3.641859064105367 -3.80039906099998 C 3.641764392387316 -3.8006377925058854 3.6416493271333805 -3.8008679230137568 3.6415151449594867 -3.8010868992917404 C 3.641072963200498 -3.8023151819555987 3.640335993602183 -3.803101282860468 3.6397955492300857 -3.804231302911217 L 3.6450034677248437 -3.800841242758969 C 3.644020841593757 -3.800644717532752 3.642890821543008 -3.80074298014586 3.641859064105367 -3.80039906099998 M 3.0579334857072484 -2.9122033011109445 C 3.0605865762611817 -2.968360384502535 3.07159198892935 -2.9964143605450526 3.0908514610986444 -2.998330481500671 C 3.0893668606372993 -2.996532979302865 3.088323649787389 -2.994412905640144 3.0878053200922766 -2.992139936874827 C 3.0814182502402145 -2.968704303648415 3.061569202392268 -2.866560317321979 3.04294843720818 -2.790652448695551 C 3.03875394994091 -2.7912349481492438 3.0345432068971507 -2.7916937061462295 3.030321691423718 -2.7920281252790726 C 3.031943024540012 -2.8013139422178397 3.03351522634975 -2.810747153076269 3.035431347305369 -2.8199347074019276 C 3.0413271040918874 -2.8510839557573675 3.0489915879143616 -2.8818401536603733 3.057933485707248 -2.9122033011109445 M 3.064811868624853 -2.288039182644836 L 3.058031748320357 -2.2847965164122503 L 3.053216880278033 -2.304055988581545 C 3.054297769022228 -2.304498170340534 3.055133001233652 -2.3043016451143163 3.0562138899778466 -2.304842089486414 C 3.063288798121669 -2.3090182505435317 3.0704128375720456 -2.313047017680986 3.0776351396355315 -2.3170757848184405 C 3.073488523474865 -2.3073409772578355 3.0692137282286094 -2.2976612684818316 3.0648118686248496 -2.2880391826448276 M 2.0237686140453213 -2.631123096313668 C 2.024800371482962 -2.619921158419282 2.031187441335024 -2.609161402283885 2.0409154400327796 -2.5989420905205867 C 2.013156251829588 -2.612404068516471 1.985642720159167 -2.626504753497561 1.9585222389411814 -2.641538933303184 C 1.9802874077447459 -2.6380506105378267 2.0022491017745283 -2.6348079443052415 2.0237686140453213 -2.631123096313668 M 2.268688177218617 -2.592800677201296 L 2.268688177218617 -2.592898939814405 L 2.268933833751389 -2.5926532832816336 C 2.268786439831726 -2.5926532832816336 2.268688177218617 -2.592800677201296 2.268688177218617 -2.592800677201296 M 4.444222431444001 -5.1378023567151825 C 4.433937769088946 -5.140302326203733 4.42313549481862 -5.136624956239366 4.416512374547364 -5.128369145856753 L 4.415873667562158 -5.132053993848327 C 4.415431485803169 -5.134068377417054 4.414497990978637 -5.135444054000576 4.4137610213803224 -5.137114518423422 C 4.423145100932198 -5.143403325662376 4.432480049177519 -5.149790395514438 4.442109785262166 -5.155833546220619 C 4.442748492247372 -5.149790395514438 4.443681987071904 -5.143747244808257 4.444222431444001 -5.137802356715183 M 4.326700346166064 -4.342612160133481 C 4.3276089955186325 -4.337757505234643 4.3301169927256105 -4.333346889456856 4.33382438561644 -4.330083676962128 C 4.329206042800334 -4.316523436353135 4.324489437371119 -4.302963195744142 4.319674569328795 -4.289501217748258 L 4.326700346166064 -4.342612160133481 M 4.449921663004303 -4.914893618878224 C 4.448398592501119 -4.928797778633097 4.446580734158609 -4.942800201001079 4.444812007122653 -4.956704360755952 C 4.446826390691381 -4.979353893077495 4.448742511647 -5.001905162785929 4.450855157828835 -5.024554695107471 C 4.451690390040259 -4.987657083885176 4.4513956022009324 -4.95110339180876 4.449921663004303 -4.914893618878224 M 4.263615748550313 -4.142500348537727 L 4.25482124467709 -4.121521280639031 C 4.25698302216548 -4.129382289687722 4.259537850106305 -4.137439823962631 4.261453971061924 -4.145300833011323 C 4.262043546740575 -4.144269075573682 4.262829647645445 -4.143384712055704 4.263615748550313 -4.142500348537727 M 4.1816647292177045 -3.9636623926799937 C 4.183094074112535 -3.9629899597317895 4.18461876681783 -3.9625424955682793 4.186184809420702 -3.962335847403027 C 4.183384324947106 -3.9560470401640733 4.180632971780064 -3.94975823292512 4.177734224693358 -3.943469425686167 C 4.179011638663771 -3.950200414684109 4.180436446553847 -3.9569314036820513 4.1816647292177045 -3.9636623926799937 M 4.219888885716967 -4.038685897788444 C 4.216330045946178 -4.038366531858045 4.213035094319501 -4.03667500588927 4.210701331391309 -4.033969292359229 C 4.208895436306992 -4.0446086968344925 4.207844677566745 -4.055362555816708 4.207556927771832 -4.06615029815231 C 4.209227392194679 -4.068950782625906 4.210799594004417 -4.071849529712611 4.2122735332010475 -4.074650014186208 C 4.218904004451336 -4.069998378503891 4.227562768999812 -4.069393399321465 4.234775671602927 -4.07307781237647 L 4.219888885716967 -4.038685897788444 M 4.789762910440549 -3.1732379328340596 C 4.360011372009893 -3.1547154302630793 3.9131130075917793 -2.886212839943709 3.7505375142035278 -2.476605137200325 C 3.753878443049221 -2.554232601556154 3.7593811493833056 -2.631810934605429 3.76738955235166 -2.7089470858957148 C 3.8272314837348245 -3.2869277762007605 4.03736608186766 -3.8216237854314485 4.16500921629579 -4.383685932412893 C 4.171985861826503 -4.4140490798634655 4.12693245371619 -4.437042531330888 4.112143930443338 -4.405991545588556 C 4.0868839250978795 -4.352664891380953 4.062543944082053 -4.298907275166995 4.039134808903631 -4.244742597477305 C 4.033632102569532 -4.271666553469039 4.0275889518633505 -4.299474872978786 4.024542810856982 -4.330525858721117 C 4.011631249390564 -4.464771924110639 4.029943072357186 -4.600185248582832 4.0780468036946385 -4.7261802704030735 C 4.1378396037712495 -4.882712613085144 4.240720559695999 -5.009717040528067 4.371065915984616 -5.107291815344951 C 4.371802885582931 -5.07545472869775 4.372687249100909 -5.043470248130886 4.373522481312332 -5.011633161483685 C 4.373191155050162 -4.999522461511556 4.382688639577621 -4.989410820940751 4.394796337050353 -4.988983629162143 C 4.398235528509156 -4.965891915081611 4.401772982581068 -4.942800201001081 4.404622598361218 -4.919610224307441 C 4.403885628762904 -4.902316004400319 4.403296053084251 -4.885070915799751 4.4023625582597194 -4.867776695892631 C 4.401036012982752 -4.839771851156667 4.399169023333688 -4.811717875114149 4.3973511649911785 -4.783713030378185 C 4.392701477140541 -4.780739237741192 4.389525076632195 -4.77593894708532 4.388605792424509 -4.770496708915073 C 4.388100630439588 -4.7702079687309595 4.38760881287876 -4.769896484275769 4.38713185322788 -4.769563214090541 C 4.387033590614771 -4.770251052382301 4.387033590614771 -4.7707914967543985 4.386886196695108 -4.771479335046159 C 4.383250480010089 -4.803562078226132 4.335101799586852 -4.805576461794859 4.335347456119624 -4.771479335046159 L 4.33426656737543 -4.765436184339977 C 4.333185678631233 -4.765534446953087 4.332448709032919 -4.765780103485858 4.331466082901833 -4.765780103485858 C 4.318397155358383 -4.766566204390727 4.307981318368867 -4.75580644825533 4.305377359121487 -4.7435727529233045 C 4.290294048009311 -4.748731540111508 4.271771545438331 -4.741312712821806 4.271968070664549 -4.720038857083784 C 4.272311989810429 -4.677982458673284 4.2725576463432 -4.6359260602627845 4.273048959408744 -4.594017055771948 C 4.263812273776531 -4.5915113591376775 4.256049527340948 -4.585271683205279 4.254329931611547 -4.574266270537111 C 4.2434727846015745 -4.510354158942377 4.233269316751675 -4.446332721020614 4.22372112762821 -4.382211993216295 C 4.218513209133446 -4.347574422095468 4.270445000161365 -4.331655878771867 4.277274251772415 -4.3674234699434145 C 4.280074736246012 -4.381524154924504 4.28233477634751 -4.395870496438366 4.285036998207998 -4.41011857533912 C 4.286038889832346 -4.40683032433447 4.287711825490648 -4.40378558143636 4.28995012886343 -4.401176677546234 C 4.286854856550509 -4.37715146864117 4.2835139277048135 -4.353175391042661 4.280418655391892 -4.329150182137597 C 4.269511505336832 -4.34600222028573 4.240229246630457 -4.343643917571122 4.239836196178022 -4.318636082534972 C 4.239444686200814 -4.296957400869147 4.2381497713075325 -4.275304456894144 4.235954822960231 -4.253733626576716 C 4.227700763459104 -4.271076977790388 4.194979313293926 -4.264837301857989 4.196109333344674 -4.243072133054425 L 4.196453252490555 -4.235653305764721 L 4.1920805662072205 -4.216836015354417 C 4.186479597260028 -4.239927729434948 4.150368086942601 -4.238159002398993 4.148746753826309 -4.211677228166213 C 4.144423198849529 -4.141026409341098 4.140148775179302 -4.070424721822537 4.136070876735293 -3.999675640384313 C 4.1336255215080495 -3.9805653110039367 4.13249284725024 -3.9613098486211773 4.132680816583045 -3.9420446177960926 C 4.132975604422371 -3.9200337924597566 4.15729560116676 -3.9150223991912156 4.170020609564331 -3.9261260744724926 C 4.167760569462831 -3.9212620751236145 4.165598791974441 -3.916348944468182 4.163387883179497 -3.91143581381275 C 4.150908531314698 -3.88426620128821 4.185546102435496 -3.8498742867001843 4.20844129128981 -3.8766508487722904 C 4.377502117143232 -4.075583509010741 4.474487316281464 -4.327037535955761 4.517870259968931 -4.588710874664081 C 4.53423098505152 -4.600600650850227 4.548626457871936 -4.6193196786474235 4.558796638328681 -4.6469314729309525 C 4.577319140899661 -4.697389324762241 4.565232839487297 -4.736301319553265 4.5386036713348545 -4.760719578910763 C 4.550705462783751 -4.917602502534187 4.546358238244932 -5.07532112614332 4.525633006404513 -5.231299233088062 C 4.520916400975299 -5.2663789859678465 4.490209334378847 -5.288242417384519 4.456112207630148 -5.2711938540101695 C 4.242636680651618 -5.163792817882421 4.073428460878533 -4.987313164739296 3.986564310890491 -4.7629796190122615 C 3.9277050056384133 -4.610574306080754 3.8595598834475684 -4.270782189951062 3.9894630579771957 -4.126680067827236 C 3.929766673692268 -3.979071837856171 3.876926856747533 -3.828782479515375 3.8311128569526165 -3.6762933806437625 C 3.751913190787049 -4.112333726313373 3.3574870617689507 -4.510788622468925 2.9981898169371926 -4.711833928889211 C 2.968416245165273 -4.728538573117681 2.9204149586617003 -4.715076595121797 2.91358570705065 -4.677442014301185 C 2.8203836185171007 -4.1581732353285545 3.1650397339956706 -3.4591330056736593 3.745280464402215 -3.4112299817831953 C 3.75068490812319 -3.410787800024206 3.755352382245851 -3.4117212948487383 3.759626805916077 -3.4132934966584774 C 3.5997044030817587 -2.7534600496339308 3.5734682853817508 -2.0498997397760377 3.7689617541613987 -1.4182185314071178 C 3.560006307385866 -1.683478455493903 3.3269765203987163 -1.9319354727391103 3.0711989384769156 -2.1530263522335593 C 3.081762169386095 -2.1603469169101537 3.0889353401430255 -2.1724332183225172 3.0847591790859084 -2.186926953756042 C 3.0827447955171814 -2.1939527305933098 3.080828674561562 -2.200929376124024 3.078912553605944 -2.2080042842678465 C 3.080730411948454 -2.2128191523101695 3.082302613758192 -2.217732282965602 3.083776552954822 -2.222891070153806 C 3.1069173983419076 -2.2680918721837817 3.1273560218685055 -2.314029643812073 3.1446993730821813 -2.3629152938336238 C 3.151577755999787 -2.3823221599225812 3.1276016784012777 -2.397896784100301 3.1111918220121333 -2.3886109671615343 L 3.0932097638132516 -2.3783916553982354 C 3.0976315814031405 -2.3984863597789534 3.097091137031043 -2.419318033757986 3.0932097638132516 -2.446585908895634 C 3.094487177783664 -2.452972978747696 3.0960102482868477 -2.459458311212867 3.0973367935638145 -2.465845381064929 C 3.1031834190437793 -2.4772929754920856 3.098221157081793 -2.4931132562025775 3.0879035827053847 -2.499942507813628 C 3.121558527695096 -2.530109130037982 3.129173880211016 -2.5560995912052187 3.1248994565407897 -2.6067048369561703 C 3.123572911263823 -2.6228199055059878 3.1048538834666264 -2.6338253181741558 3.0918832185362852 -2.6269960665631054 C 3.0927184507477086 -2.6350536008380145 3.09330802642636 -2.643553316871912 3.0929149759739256 -2.653428709489331 C 3.0925710568280453 -2.669150727586714 3.0781264527010745 -2.677453918394394 3.065401444303505 -2.6747516965339067 L 3.0718376454621215 -2.682907493421924 C 3.072672877673545 -2.684283170005445 3.076112069132347 -2.684283170005445 3.0771929578765427 -2.6859536344282917 C 3.0918832185362852 -2.7120914895151915 3.1008251163291716 -2.7117475703693112 3.0992529145194334 -2.740194596864264 C 3.0977789753228038 -2.76765899722813 3.084120472100702 -2.7800400864798185 3.0648118686248536 -2.7861814997991092 C 3.083629159035159 -2.851771794049129 3.1022007929126927 -2.9173620882991496 3.1197406693525855 -2.9833945643081585 C 3.1199863258853577 -2.984426321745799 3.1198880632722488 -2.9852124226506684 3.1198880632722488 -2.9861950487817546 C 3.1295177993568957 -2.978481433652726 3.1399336363464125 -2.9680655966632097 3.151823412532558 -2.9531296794706963 C 3.3820035837395572 -2.784609297989371 3.2154975858269594 -2.3736750499690205 3.1213620024688784 -2.1715488548045396 C 3.1033799442699963 -2.1329807791593964 3.155066078765144 -2.0821790081822273 3.1857731453615945 -2.12187710387812 C 3.3087979369736176 -2.2803255675158085 3.353065244179062 -2.496355922435163 3.3407824175404808 -2.69445335046219 C 3.3333635902507783 -2.813744162776084 3.3046709072230547 -3.0712904717338403 3.1587017954501633 -3.1114307491887216 C 3.0014816144763325 -3.1546171676499712 2.963110064057407 -2.91043457407499 2.9463562885223835 -2.8117297792073566 C 2.913733100970313 -2.6205598654044895 2.9277355233382947 -2.417991488481019 2.9955367263832597 -2.23566520985793 C 2.9943575750259557 -2.2328647253843332 2.9933258175883153 -2.2299659782976287 2.992146666231011 -2.2272637564371403 C 2.9912623027130336 -2.225495029401185 2.9902305452753923 -2.223677171058675 2.9893953130639694 -2.221908444022719 C 2.820247754761446 -2.362004294116994 2.6409516648363347 -2.489373819072038 2.4529797081038707 -2.6029708576580477 C 2.4540034202766265 -2.608016180654574 2.453969961924157 -2.6132189544636093 2.4528814454907715 -2.618250693996436 C 2.367638628619023 -2.990567735065089 1.8598665753801034 -2.9522453159527178 1.5807024915384449 -2.91657598739428 C 1.5396287192590317 -2.911318937592968 1.5205657723159547 -2.8699503774742285 1.5477353848404949 -2.8369832707762783 C 1.7855800398699684 -2.5482877134630812 2.202606569903055 -2.3212028145690042 2.585142922735007 -2.3823221599225812 C 2.6013071225913786 -2.3847787252502974 2.599636658168532 -2.409442641140567 2.585142922735007 -2.4131766204386955 C 2.483146330328234 -2.4397566572845837 2.3865050503358822 -2.4668771385025696 2.2939416687875394 -2.497584205099021 C 2.294678638385854 -2.5011707904774867 2.2949242949186255 -2.505101295001832 2.294089062707202 -2.5092283247523954 C 2.2933520931088873 -2.5138466675685014 2.292222073058138 -2.517531515560076 2.2910920530073886 -2.5215602826975303 C 2.2928607800433443 -2.5214620200844213 2.294580375772745 -2.521019838325433 2.296201708889038 -2.5213637574713132 C 2.341648167451786 -2.497485942485912 2.3867015755620993 -2.4755242484561304 2.4376016091523773 -2.462700977445452 C 2.4448239112158623 -2.460932250409497 2.450719668002381 -2.4700215421220464 2.4450204364420793 -2.475376854536467 C 2.407680643460795 -2.510702263949025 2.365624245050295 -2.536741856422816 2.321995644830057 -2.561946216685183 C 2.325189179756088 -2.593341121573395 2.3193425542761235 -2.6154010782162858 2.297036941100461 -2.6465011952651714 C 2.286817629337162 -2.6607001428593704 2.266968581489216 -2.6657606674344656 2.2534083408802235 -2.6521021642123643 L 2.116135470367447 -2.676962605328851 C 2.109404481369505 -2.6939129060900924 2.0916189483968406 -2.7042304804665003 2.0742264658766105 -2.69410943131631 C 2.069755516980167 -2.691554603375485 2.0659724063754847 -2.68899977543466 2.0622384270773564 -2.68649407880039 C 1.958522238941182 -2.7159728627329827 1.8458641530121211 -2.7358219105809294 1.7739850515231481 -2.8136459001629754 C 1.7552660237259512 -2.8338388671568016 1.7317321278864308 -2.821703434437884 1.7237237249180763 -2.8021000431227097 C 1.7096230399369858 -2.8138915566957468 1.6955223549558955 -2.826420039867099 1.6815199325879135 -2.8389976543450057 C 1.9422597764717011 -2.8760917907935193 2.173471705116341 -2.859632803097821 2.3449890962974798 -2.6522986894385814 C 2.338690835326232 -2.647725641040431 2.334992068102464 -2.6403897668453977 2.3350603406593673 -2.632606695358398 C 2.3351286132162707 -2.6248236238713982 2.3389555009126113 -2.617553764193208 2.3453330154433605 -2.6130919068082323 C 2.956084287220139 -2.1752337027961133 3.492205104340902 -1.6729643558912777 3.913899108496649 -1.0470806416957679 C 3.9514845580107054 -0.9913657400631664 4.0318142442270215 -1.0392687639536309 4.003318086425516 -1.0994546144826751 C 3.818633505087818 -1.4905398146550795 3.744346969577683 -1.9191613330349861 3.7474913731971595 -2.348568952319762 C 3.7558928266179485 -2.348568952319762 3.764196017425629 -2.352155537698227 3.7688143602417354 -2.361932667702537 L 3.769698723759713 -2.3636031321253843 C 3.7727889731053765 -2.355944724821808 3.7780055923403584 -2.3493301880140534 3.784732903565336 -2.344540185182307 C 3.7914313315072676 -2.3299209638651863 3.805545744990624 -2.3200973320807705 3.8215813834810772 -2.3188936431609513 C 4.315744064804449 -2.2679444782641194 4.7425968561484 -2.643455054258803 4.835061975083635 -3.1136907892902204 C 4.840662944030828 -3.1421869470917274 4.822287835379511 -3.174662740724134 4.789762910440549 -3.173237932834059" fill="#3682ae" transform="matrix(1,0,0,1,0,0)" fill-rule="nonzero"></path></g><g clip-path="url(&quot;#a425d168d-0d4a-428b-ada5-ca6b45ad73b3939be618-7a20-4574-ac95-c37ff0c735b5&quot;)"><path d=" M 2.715586541636732 -1.5396711212094019 C 2.7390713061696976 -1.507391852803213 2.772087544174202 -1.4923576729975903 2.80741295358676 -1.4771269679657504 C 2.809849669865854 -1.4612466415761807 2.816386395589308 -1.446276523598116 2.8263776379167282 -1.4336948929717295 C 2.7550881121064066 -1.4505469311198622 2.6820298592601297 -1.4760952105281095 2.607153748071343 -1.5072444588835499 C 2.643510914921541 -1.523654315272693 2.6800154756914027 -1.5379023941734467 2.71681482430059 -1.5505291399579075 C 2.7141617337466566 -1.547630392871202 2.712736925856581 -1.5435033631206396 2.715586541636732 -1.5396711212094019 M 2.9125048183064552 -1.4179237435677914 C 2.911593276594757 -1.4179951415158083 2.9106893520054564 -1.4181430564486028 2.9098025964459673 -1.418365925326781 C 2.910244778204956 -1.4185624505529981 2.910441303431173 -1.4189063696988784 2.910785222577054 -1.4191520262316502 C 2.9114730608688144 -1.4188081070857699 2.9119152426278028 -1.4182676627136717 2.9125048183064552 -1.4179237435677914 M 3.42238951772721 -1.5870828320343229 C 3.3854742187769107 -1.5527751358105997 3.345196016887239 -1.5222743151724467 3.302165210588784 -1.4960425209891648 C 3.3496260527202586 -1.5298939912050917 3.3908963502258898 -1.5723925713745812 3.404210934302111 -1.6224082414468812 C 3.4044074595283282 -1.622653897979652 3.4044074595283282 -1.6227521605927606 3.4044074595283282 -1.6229978171255333 C 3.404800509980763 -1.624668281548379 3.40534095435286 -1.6263387459712266 3.4057831361118494 -1.6280092103940733 C 3.408927539731326 -1.6391128856753507 3.4099592971689665 -1.6517887627663654 3.408387095359228 -1.6676090434768573 C 3.4041126716890022 -1.7104515427922262 3.344712922064827 -1.711090249777432 3.34122459929947 -1.6676090434768573 C 3.3386206400520906 -1.6335119167281578 3.2578979033833395 -1.5910133365586692 3.232054836135766 -1.5759791567530463 C 3.1900967003383753 -1.5517574226217654 3.1419971512216938 -1.538639363771762 3.09478196562299 -1.5284691833150168 C 3.016564925588509 -1.5116662764734388 2.943752329275004 -1.529451809446103 2.873445429595769 -1.4832683812850407 C 2.8673040162764787 -1.4792396141475859 2.8645526631094365 -1.4711820798726771 2.8684831676337823 -1.4644510908747357 C 2.8690727433124343 -1.4635667273567572 2.869809712910749 -1.4628788890649966 2.870301025976292 -1.461994525547019 C 2.861997835168612 -1.4674481005745488 2.8566425227541905 -1.4758495539953378 2.8593447446146785 -1.4876410675683749 C 2.8618013099423947 -1.498400823703772 2.857870805418049 -1.512648902604525 2.8470127866695436 -1.5179059524058376 C 2.808739498863727 -1.5360845358309367 2.7717927563348765 -1.5566214219706431 2.728901125712953 -1.5545579070953615 C 2.9095569399131955 -1.614448969785081 3.097042005724489 -1.6326275532101793 3.295041171138407 -1.6299253313496926 C 3.3148410876797993 -1.6295814122038115 3.3183785417517107 -1.6586180143774163 3.2996595139545137 -1.6641207207114999 C 3.0150909863918796 -1.7487739619045968 2.72295623761988 -1.6874580913248032 2.467620837457068 -1.5465003728204527 C 2.426890984323535 -1.5240964970316826 2.443251709406124 -1.472410362536536 2.4793632197235507 -1.4572779201178037 C 2.754498536427755 -1.3416719557954844 3.325306055975869 -1.1480454766649002 3.4768761366959535 -1.5553931393067852 C 3.489011569414871 -1.5877706703260834 3.444498605676655 -1.6075214555609216 3.42238951772721 -1.5870828320343229" fill="#3682ae" transform="matrix(1,0,0,1,0,0)" fill-rule="nonzero"></path></g><g clip-path="url(&quot;#a425d168d-0d4a-428b-ada5-ca6b45ad73b3939be618-7a20-4574-ac95-c37ff0c735b5&quot;)"><path d=" M 6.481845108171404 -3.1909252031936153 C 6.476735452289755 -3.2096442309908118 6.464894807410163 -3.232097238086137 6.444996628255662 -3.2377964696464385 C 6.4313722236068145 -3.241680669957178 6.41714724806721 -3.2430132203590145 6.403038492458272 -3.2417269741707844 C 6.402399785473065 -3.2419726307035557 6.401908472407522 -3.2424639437690987 6.401220634115761 -3.2427587316084248 C 6.368400921337474 -3.255532871312549 6.3306189465972 -3.252486730306181 6.302515839248128 -3.2304267736632903 C 6.2715139848123505 -3.206303302145118 6.267386955061788 -3.1611025001151414 6.279718913006922 -3.1260227472353557 C 6.305512848947942 -3.053161019615296 6.401220634115761 -3.0180321354289554 6.45349634428956 -3.084752449729725 C 6.477521553194624 -3.115361253713068 6.492506601693693 -3.151472764030494 6.481845108171404 -3.1909252031936153 M 6.384859909033173 -3.1487705421700065 C 6.383435101143097 -3.145036562871878 6.381027667121934 -3.144397855886672 6.379111546166317 -3.1421869470917274 C 6.377490213050024 -3.1426291288507167 6.375967142546839 -3.14164650271963 6.374247546817438 -3.142727391463825 C 6.363684315908259 -3.149114461315887 6.361964720178858 -3.1587441974005337 6.362849083696836 -3.1687178526310613 C 6.376065405159949 -3.174122296352037 6.3917382919507775 -3.16699825690166 6.384859909033173 -3.1487705421700065" fill="#3682ae" transform="matrix(1,0,0,1,0,0)" fill-rule="nonzero"></path></g><g clip-path="url(&quot;#a425d168d-0d4a-428b-ada5-ca6b45ad73b3939be618-7a20-4574-ac95-c37ff0c735b5&quot;)"><path d=" M 0.637332274388905 -3.2377964696464385 C 0.6237091287274131 -3.2416873721295634 0.6094829018701666 -3.243020039750851 0.5953741385915139 -3.2417269741707844 C 0.5947354316063077 -3.241972630703556 0.5942932498473188 -3.2424639437690996 0.593556280249004 -3.242709600301871 C 0.5607365674707168 -3.255532871312549 0.5229545927304431 -3.252486730306181 0.4948514853813708 -3.230377642356736 C 0.4638987622521478 -3.206303302145118 0.45977173250158476 -3.161102500115142 0.4720545591401653 -3.1260227472353557 C 0.49789762638773877 -3.0531118883087416 0.593556280249004 -3.018032135428956 0.6458811217293571 -3.0847524497297254 C 0.6698571993278662 -3.115361253713068 0.6849405104400432 -3.151472764030495 0.6742298856112009 -3.1909252031936153 C 0.6690710984229971 -3.2096442309908118 0.6573287161565141 -3.2320481067795828 0.637332274388905 -3.2377964696464385 M 0.577244686472969 -3.148770542170007 C 0.575869009889448 -3.1450365628718786 0.5734124445617319 -3.1443978558866723 0.571447192299559 -3.142186947091728 C 0.5698258591832663 -3.1426291288507167 0.5683027886800824 -3.1416465027196305 0.5666323242572354 -3.142727391463825 C 0.5561182246546105 -3.1491144613158872 0.5543003663121006 -3.1587441974005346 0.555282992443187 -3.1687178526310618 C 0.5684501825997453 -3.1741222963520372 0.5841230693905741 -3.166998256901661 0.577244686472969 -3.148770542170007" fill="#3682ae" transform="matrix(1,0,0,1,0,0)" fill-rule="nonzero"></path></g><g clip-path="url(&quot;#a425d168d-0d4a-428b-ada5-ca6b45ad73b3939be618-7a20-4574-ac95-c37ff0c735b5&quot;)"><path d=" M 0.5312577835381235 -3.768512843046226 L 0.6090817731201698 -4.109877160985656 L 0.7245403435228268 -4.432178531982009 L 0.7255721009604676 -4.435224672988377 L 0.7268986462374343 -4.438270813994745 L 0.8800409287672564 -4.743572752923303 L 0.8777317573592034 -4.739150935333414 C 0.9267156699938626 -4.84448845658588 0.984297561275528 -4.949727715225238 1.0749448218682525 -5.038360592249235 L 1.068950802468625 -5.031826128477511 C 1.136850268126698 -5.117363733188586 1.2017527240849577 -5.210418427802472 1.288125561007456 -5.294580355930026 C 1.2915156211597045 -5.297872153469165 1.2952004691512786 -5.300672637942761 1.2989835797559612 -5.302981809350815 L 1.30124361985746 -5.304308354627781 C 1.3285114949951087 -5.3204234231775995 1.3660969445091653 -5.365722487820684 1.4013732226151687 -5.407680623618075 C 1.4196991999599309 -5.429347529808531 1.4389586721292251 -5.451800536903857 1.4614116792245504 -5.474155281386073 C 1.4841594741592017 -5.49616610672241 1.5092655718084602 -5.519454346029159 1.5477353848404944 -5.5375346668411485 L 1.518207469601347 -5.511789862206684 C 1.5355999521215768 -5.538468161665681 1.5536311416270132 -5.566227349868873 1.578295057517283 -5.589368195255958 C 1.6035485490862045 -5.611968596270947 1.6345504035219816 -5.62769061436833 1.661425228207196 -5.64542701603444 C 1.7175823115987863 -5.6797697993159115 1.7706932539840083 -5.697358807062359 1.811226581891324 -5.723889712601693 L 1.8176627830499401 -5.728115004965364 C 1.8262059846680851 -5.733687669516159 1.836751641487295 -5.735265931080939 1.8465519913038817 -5.732438559942145 C 1.850089445375793 -5.7314068025045035 1.8680715035746749 -5.73715516537136 1.8870853192111976 -5.751943688644211 C 1.9061482661542746 -5.766044373625301 1.9263903644546552 -5.784861664035606 1.947565957579568 -5.804465055350781 C 1.968938075930698 -5.82411757797251 1.9914402143325778 -5.845096645871205 2.019739846907868 -5.8646509058798255 C 2.0472533785782874 -5.883075145837696 2.0856249289972135 -5.905085971174033 2.1362793060547194 -5.899927183985829 L 2.093485938045905 -5.885679105085076 C 2.139669366206968 -5.930044674903629 2.1981847523131655 -5.964141801652328 2.256798401032472 -5.985464788696905 C 2.3155594436714413 -6.007082563580806 2.372404365354792 -6.018235370168637 2.4223217728139828 -6.034989145703661 L 2.4141168446194112 -6.031549954244858 C 2.5178330327555853 -6.085889179293939 2.63348812838446 -6.137427919869423 2.764521322964837 -6.140424929569236 L 2.745556638634868 -6.136887475497325 C 2.8687779554731083 -6.18400439848292 2.9926379792965543 -6.181351307928987 3.0905566732593184 -6.214514939853154 L 3.0953224099950876 -6.215546697290795 L 3.098319419694901 -6.215890616436675 C 3.244092006241575 -6.231710897147167 3.3916824511307584 -6.256669600876762 3.539518552552714 -6.250331662331255 C 3.687158128748452 -6.2447798246906165 3.8346994423310807 -6.229401725739113 3.979096352294234 -6.198498133916445 C 4.12337747335548 -6.1688287918854146 4.265225697898851 -6.128361728637196 4.403443447003919 -6.077438594566594 C 4.542927226311635 -6.0307147220334345 4.6714547242577416 -5.957705600493712 4.807057130347671 -5.902531143233208 L 4.784604123252347 -5.908525162632835 C 4.832752803675582 -5.904692920721598 4.8653268599210975 -5.882829489304925 4.891857765460432 -5.86401219889462 C 4.918536064919429 -5.844310544966336 4.940252102416439 -5.823724527520076 4.96118203900858 -5.804710711883553 C 4.981915450374505 -5.785746027553584 5.001911892142114 -5.767714838048148 5.020434394713093 -5.754989829650579 C 5.039399079043061 -5.741527851654695 5.054236733622467 -5.738285185422109 5.057725056387824 -5.739267811553196 C 5.065796086393421 -5.741493586060016 5.074334146729062 -5.7413742918038295 5.082339840971539 -5.738923892407316 L 5.085385981977907 -5.737941266276229 C 5.141248277530171 -5.7207944402887705 5.2016306532854335 -5.696032261785392 5.252923737328145 -5.657071135687815 C 5.30436421529052 -5.618846979188552 5.3454871188764885 -5.569175228262132 5.378061175122005 -5.51970000256193 C 5.437657449972397 -5.432639327347671 5.510126127140023 -5.349902207110192 5.597137671047727 -5.310154980107746 L 5.598022034565704 -5.309712798348757 C 5.6031802671815685 -5.307371606306348 5.607899550726884 -5.304164487559003 5.6119753256271325 -5.3002304561837725 C 5.657863965948869 -5.255717492445557 5.690192365661614 -5.208649700766516 5.723355997585781 -5.164136737028301 C 5.755143952926427 -5.1209503185670515 5.789879786660333 -5.073735132968348 5.819604227125698 -5.052608671149989 C 5.880576178559611 -5.010699666659153 5.9108901947036285 -4.957441330354268 5.941449867380417 -4.908162629880282 C 5.970879520006456 -4.857901303275211 5.99593648634916 -4.807246926217704 6.020649533545984 -4.757280387451959 L 6.001979637055342 -4.778062930124436 C 6.067422537385699 -4.732125158496146 6.0931673420201635 -4.673511509776839 6.119010409267737 -4.619123153421205 C 6.143428668625235 -4.56370303962793 6.1605754946126945 -4.507595087542894 6.176887088388729 -4.451781923297183 L 6.173939209995469 -4.459937720185201 C 6.223463567002226 -4.361331187930677 6.273135317928646 -4.24916441506716 6.298683597336893 -4.135671096926675 L 6.297651839899253 -4.139306813611695 L 6.384024676821751 -3.8027082324080337 C 6.390896818654134 -3.7730657744562524 6.372845579849504 -3.7433590705308446 6.343369969459248 -3.7358032754760964 C 6.313894359068991 -3.7282474804213477 6.283778158998988 -3.7456069151424787 6.275542751949807 -3.7748999128982876 L 6.275444489336699 -3.775292963350722 L 6.2738231562204065 -3.7820239523486645 L 6.194918277894166 -4.107125807818614 L 6.193935651763079 -4.110810655810188 C 6.170893068989102 -4.217622116259284 6.130212347162123 -4.313133376200886 6.080491464929149 -4.415965200819083 C 6.079269480386354 -4.418613499182316 6.078267106555567 -4.421357702948564 6.077494455229336 -4.424170129013655 C 6.063715198650988 -4.476457921118274 6.0460609904848415 -4.527646913540487 6.024678300683439 -4.577312411543475 C 6.003994020624069 -4.624331071915963 5.975546994129116 -4.67169365143433 5.946166472809632 -4.690265285311863 C 5.938164305337162 -4.695396313006557 5.931696817810128 -4.702593726947405 5.927447445012436 -4.711096959290896 C 5.902734397815611 -4.760572184991099 5.878168744538451 -4.80935957239954 5.851293919853236 -4.8548551622688425 C 5.824566489087685 -4.899564651233276 5.794105079024005 -4.943930221051829 5.761776679311261 -4.964319713271872 C 5.701197778329782 -5.009127464849414 5.672947277061047 -5.0563426504481175 5.637867524181261 -5.101003008105996 C 5.604802154870201 -5.145417709231104 5.5727685429967835 -5.1897832790496565 5.538474891021867 -5.2224064666017265 L 5.553263414294719 -5.212531073984308 C 5.43426738982015 -5.267852925164474 5.355215117574245 -5.3634624477191855 5.287905227594824 -5.45912110158045 C 5.258721231501557 -5.503093620946569 5.2264419630953665 -5.540629939154071 5.187529968304343 -5.569420884794904 C 5.148863630046091 -5.5983592243553995 5.104006747161995 -5.617176514765705 5.0527627944258375 -5.632849401556534 L 5.0803745887093665 -5.631522856279567 C 5.026477545419276 -5.62189312019492 4.985747692285742 -5.645525278647549 4.958479817148094 -5.663507336846431 C 4.930081921959696 -5.683012465548496 4.90797283401025 -5.703549351688203 4.886551584352566 -5.722710561244389 C 4.846509569510793 -5.760836455130542 4.80042440396284 -5.797341015900404 4.778904891692046 -5.796997096754524 C 4.773643034769995 -5.796926109596492 4.7684235842205505 -5.797946579094941 4.763575924047098 -5.799994106454338 L 4.756451884596721 -5.802991116154151 L 4.561842779335052 -5.885826499004738 C 4.497087717296455 -5.913536555901376 4.432185261338196 -5.940902693652133 4.364531452212894 -5.960407822354199 C 4.229715147027834 -6.001186806794286 4.091852700836405 -6.030223408967891 3.9532041537401086 -6.050318113348609 C 3.814408212724148 -6.069184535065468 3.674973564722982 -6.081565624317157 3.5352441288824905 -6.083825664418656 C 3.465232017042581 -6.0861348358267096 3.395711218268216 -6.079403846828767 3.325797369041415 -6.078470352004235 C 3.2558835198146143 -6.076898150194498 3.1855766201353797 -6.077880776325584 3.115024063923373 -6.077880776325584 L 3.1227376790524017 -6.079305584215659 C 2.9952910698504898 -6.0581299910907465 2.8805203377395934 -6.0687423533064795 2.7848125525717737 -6.032630842989053 C 2.778720894811111 -6.030382639997773 2.7722913520741863 -6.029186446000206 2.765798736935251 -6.029093388917142 C 2.665030427192336 -6.028700338464707 2.562345996493803 -5.987528303572185 2.463444676399952 -5.936873926514679 L 2.4627568381081915 -5.936530007368798 C 2.4603235407806707 -5.935293321307251 2.4577930000906196 -5.9342581001158665 2.4551906168988253 -5.933434735055876 C 2.3966752307926282 -5.91505962640456 2.3409111978534725 -5.9046929207215975 2.292467729590911 -5.887300438201367 C 2.245113438882316 -5.871297415191843 2.2019726942141715 -5.844831936952452 2.1662494030528574 -5.809869499071755 L 2.161925848076077 -5.8056442067080845 C 2.1517485940255874 -5.795786328670046 2.137158288382607 -5.79196638913389 2.1234560350440432 -5.795572288864448 C 2.1069479160417903 -5.799944975147783 2.0595853365234236 -5.765160010107323 2.0209681295717266 -5.7260023587835285 C 2.0001855868992484 -5.7063989674683535 1.9788625998546725 -5.685370768263104 1.9519877751694585 -5.664883013429952 C 1.9257025261628962 -5.646016591713092 1.890573641976556 -5.620271787078627 1.835497447329161 -5.623219665471886 L 1.870773725435164 -5.631719381505785 C 1.8162871064664208 -5.596197446867009 1.7609652552862542 -5.576790580778052 1.7211688969772534 -5.550652725691153 C 1.7000915664654492 -5.538468161665681 1.686826113695782 -5.5181278007521914 1.6734623983130066 -5.499408772954995 C 1.659361713331916 -5.48127932083645 1.643934483073859 -5.463100737411351 1.631012949450072 -5.442023406899547 C 1.6240090451493798 -5.430608660177892 1.6136670027437576 -5.421621545384283 1.6013867715978156 -5.4162786022650815 C 1.5744628156060472 -5.40443795738549 1.5358947399609044 -5.363216791186414 1.5015028253728786 -5.322486938052881 C 1.4835698984805512 -5.30155700146074 1.465243921135789 -5.279595307430958 1.4443631158502022 -5.257289694255295 C 1.4230401288056262 -5.235131474999296 1.4008819095496268 -5.211744973079439 1.365016055764972 -5.19061851126108 L 1.3780849833084217 -5.200297378652282 C 1.304191498250721 -5.129646559827167 1.2397803553580047 -5.0403258445114085 1.169227799145998 -4.9520860179398465 C 1.1673555720463085 -4.949765119556139 1.1653370833290322 -4.947566115587724 1.1631846484398165 -4.945502422861567 C 1.0920425165491578 -4.877553825896939 1.0375067662738604 -4.7836147677650755 0.9921094390176667 -4.6865804373202895 L 0.992011176404558 -4.686334780787518 L 0.9898493989161679 -4.682109488423846 L 0.8393602069402791 -4.3870759925651415 L 0.841767640961441 -4.393119143271323 L 0.7220837781951122 -4.073176074989577 L 0.6416558293656853 -3.7491059769572685 L 0.6400344962493927 -3.7426206444920984 C 0.63260708648615 -3.712900144684451 0.6026462620985817 -3.694690952518777 0.5728443661744077 -3.701784719073447 C 0.5430424702502338 -3.7088784856281176 0.5244985517036512 -3.738633296369355 0.5312577835381235 -3.768512843046226" fill="#3682ae" transform="matrix(1,0,0,1,0,0)" fill-rule="nonzero"></path></g><g clip-path="url(&quot;#a425d168d-0d4a-428b-ada5-ca6b45ad73b3939be618-7a20-4574-ac95-c37ff0c735b5&quot;)"><path d=" M 6.341673490571923 -2.506034789826364 L 6.299420566935206 -2.3331908533682584 C 6.291636804872697 -2.3031996182040135 6.282754431672086 -2.2735043041089824 6.272791398782765 -2.2441649258918295 C 6.259182026867217 -2.212917414923278 6.25706938068538 -2.1854038832528575 6.215012982274881 -2.141922676952283 L 6.226558839315146 -2.1552372610285033 C 6.20420409483293 -2.116521791463698 6.183912865225995 -2.057859011437838 6.16283553471419 -2.0043550186001804 C 6.152083850221115 -1.976114631045423 6.140467003880266 -1.948211261061692 6.128001438367175 -1.9206844035381678 C 6.114392066451629 -1.8922373770432177 6.101421401521288 -1.8637412192417102 6.074693970755736 -1.8319041325945102 L 6.064867709444872 -1.820161750328027 C 6.064396980857322 -1.8196378000068263 6.063598840834128 -1.8195730859508918 6.063049851102362 -1.8200143564083637 C 6.062509406730264 -1.8205056694739072 6.062362012810602 -1.8212917703787763 6.062902457182699 -1.8218322147508736 L 6.062951588489254 -1.8219304773639822 C 6.067029486933262 -1.8261066384211002 6.045313449436251 -1.7946626022263334 6.036666339482691 -1.7715708881458019 L 6.002470950120883 -1.6910446767032683 C 5.990482911321628 -1.663088963273859 5.978887922974809 -1.6349367246182327 5.962871117038099 -1.6052122841528673 C 5.954089439147137 -1.5887206526022668 5.943845414798014 -1.5730504195288892 5.932262313054757 -1.5583901490065983 C 5.923418677874979 -1.5493991199071573 5.917179001942579 -1.5408994038732597 5.901407852538642 -1.5315644556279384 C 5.892613348665418 -1.527044375424941 5.885096258762608 -1.5227208204481606 5.8743365026272105 -1.5204607803466619 C 5.861966117352868 -1.5186644907364517 5.849384607381394 -1.5189134652081817 5.837094972259035 -1.5211977499449771 L 5.884211895244629 -1.5297465972854285 C 5.804176996867638 -1.4708872920333507 5.741043267945336 -1.375179506865531 5.686949699429026 -1.2786856207928432 C 5.680958498360267 -1.267984470949166 5.671669796596453 -1.2595057301925863 5.660467925196246 -1.254513017968116 L 5.659829218211041 -1.2542673614353443 C 5.646858553280699 -1.2484698672619343 5.62754994980485 -1.2327478491645518 5.609862679445294 -1.2144218718197886 C 5.59103764074488 -1.1945722548653563 5.572929343175858 -1.1740549801536666 5.555572585702768 -1.1529094760137761 C 5.518281924028038 -1.1093300071000938 5.4823669389368295 -1.0620165588882822 5.4287646834860634 -1.0191740595729124 L 5.436527429921647 -1.026445492942953 C 5.356787319383982 -0.9358964949633375 5.2612760594423795 -0.8544859200028245 5.148077529141221 -0.8003923514865159 L 5.158345972211074 -0.8067302900320241 C 5.057086349402616 -0.7284149873844346 4.946491778348838 -0.6895029925934111 4.862231587608175 -0.6257796879924555 C 4.854470800477085 -0.6198705004214995 4.8452139938315915 -0.6162460522312596 4.835504156842624 -0.6153147196963848 L 4.83398108633944 -0.6151673257767225 C 4.796543030745046 -0.6116298717048103 4.747559118110387 -0.5842146026474984 4.699606962913369 -0.5529179603723948 C 4.650279131132829 -0.5225056816152698 4.598347340104911 -0.48511675732743065 4.524650380273428 -0.46757688088753735 L 4.529710904848523 -0.46890342616450376 C 4.459649661702059 -0.4476295704264839 4.39577896318144 -0.448219146105135 4.345517636576369 -0.4367715516779773 C 4.293634976855005 -0.4257661390098102 4.257916516990013 -0.406015353774972 4.217235795163034 -0.36764380335604585 C 4.159260853428934 -0.3090792859432945 4.060163008108866 -0.2969438532243771 3.999338450594615 -0.3078018719728819 C 3.93517296423467 -0.316006800167453 3.889726505671922 -0.3230817083112756 3.8519936622382027 -0.30328179176988446 L 3.8508636421874534 -0.3026922160912324 C 3.8452336442814983 -0.2997701579551695 3.8390965220353377 -0.297952369028998 3.8327833213754623 -0.2973369036768112 C 3.778935409391926 -0.2920798538754985 3.720420023285728 -0.2706586042178145 3.653552315065295 -0.2582775149661245 C 3.588060283428384 -0.24481553697024072 3.505175769271242 -0.24481553697024072 3.4358023644165394 -0.28082878467455874 L 3.4697029659390215 -0.27566999748635546 C 3.3362132060309286 -0.2539048286827912 3.204492173158791 -0.27390127045039936 3.0825482702909635 -0.29895823679310407 C 3.080033944762979 -0.2994667686017287 3.0775556825243964 -0.3001396742426694 3.07512944300126 -0.30097262036183015 C 3.027275550417351 -0.3180211837361808 2.972788931448608 -0.3219516882605271 2.9116204547884768 -0.3262261119307528 C 2.851090685113552 -0.33045140429442466 2.780685522821208 -0.3384598072627787 2.7159304607826114 -0.3701494999903172 L 2.763145646381315 -0.36936339908544724 C 2.7177974504316755 -0.34784388681465384 2.6631634375432696 -0.35668752199443254 2.628771522955244 -0.372606065318033 C 2.5924634874116 -0.38827895210886254 2.5648516931280705 -0.40807886865025367 2.5392051511067146 -0.4257661390098093 C 2.513853396924685 -0.44345340936936584 2.489975581939284 -0.46010892229128064 2.4689965140405885 -0.4699843149086993 C 2.4469856887042525 -0.480056232752335 2.434850255985335 -0.4808423336572041 2.425466176433459 -0.4769118291328587 L 2.424483550302373 -0.4765187786804237 C 2.407379252469611 -0.4694705523370164 2.387887938181187 -0.47140494553199286 2.3725026279679 -0.481677565868627 C 2.3319693000605843 -0.5090437036193851 2.283820619637348 -0.5219652372431716 2.223978688254184 -0.5383750936323155 C 2.1648245951627807 -0.5538514551969262 2.0955985842277403 -0.5852463600851383 2.046614671593081 -0.6343285353329069 L 2.064351073259192 -0.6227826782926416 C 1.9455024427042866 -0.6729948735911577 1.8541673438198012 -0.7503766814142159 1.7599334978486119 -0.8089411988269681 L 1.7857765650961852 -0.8005397454061782 C 1.727162916376879 -0.8083516231483152 1.699452859480241 -0.8395008715037564 1.674592418363754 -0.862199535131853 C 1.6503215529259188 -0.8867160571024604 1.6310620807566245 -0.9112817103796207 1.6122939216528736 -0.9344716870732608 C 1.5936240251622313 -0.9574651385406838 1.575592835656795 -0.9799181456360095 1.5581512218300102 -0.9969175777038046 C 1.5402674262442368 -1.0163244437927617 1.5243488829206366 -1.0169631507779675 1.5347155886035986 -1.0174544638435101 L 1.4779197982268018 -1.0323903810360253 L 1.2351620125418958 -1.2760325302389086 C 1.1932530080510593 -1.31435494935128 1.1479048121014201 -1.3579344182649642 1.109484130375939 -1.4064761491406337 C 1.0705230042783618 -1.455017880016304 1.038047210645955 -1.5084236102408521 1.0108284668148613 -1.5630576231292581 L 1.0511161381894052 -1.5327927382917963 C 0.9927972773094244 -1.5469916858859953 0.9689194623240235 -1.5819240448461178 0.9472034248270135 -1.6086514756116692 C 0.9260278317021002 -1.6370002394935135 0.910354944911272 -1.6653981346819116 0.8959594720908552 -1.6938451611768643 C 0.8675124455959029 -1.750739214166769 0.8453542263399032 -1.8078297923828917 0.8244242897477619 -1.865018633212122 L 0.849726912623238 -1.8338202535501278 C 0.8072283324537491 -1.8614320478336568 0.7889514864155414 -1.8931217405611944 0.7709694282166597 -1.92240399926757 C 0.7549779972287906 -1.9509082411109615 0.7411020093422229 -1.9805486649396649 0.7294534741782575 -2.0110860075981236 C 0.7065582853239443 -2.0699944441567544 0.6893131967233772 -2.1288046181022784 0.6737385725456562 -2.1876639233543553 L 0.6760968752602636 -2.1801959647580986 C 0.6324191437334716 -2.288235707871053 0.5843687259233438 -2.4058560557621007 0.5584273960626626 -2.526326019433298 L 0.5580834769167824 -2.5280456151626995 C 0.5506486317670974 -2.5670514177271944 0.5762419495282415 -2.6046990011807374 0.6152477520927359 -2.612133846330422 C 0.6542535546572302 -2.619568691480106 0.6919011381107734 -2.593975373718963 0.6993359832604582 -2.5549695711544684 C 0.7180058797511003 -2.4428519295975053 0.7511695116752686 -2.3373670144253755 0.7947489805889513 -2.225937211160173 C 0.7956824754134837 -2.2236771710586742 0.7965668389314619 -2.220778423971969 0.797156414610114 -2.2184692525639162 C 0.81052012999289 -2.1623613004788806 0.8255543097985121 -2.106842924072496 0.8443716002088166 -2.054665476511806 C 0.8532565691913472 -2.029525313825568 0.8639458763430263 -2.005059772111279 0.8763560807756796 -1.981459829745865 C 0.8876071499766202 -1.9597437922488554 0.9032309054608942 -1.9401895322402352 0.9110427832030324 -1.9353746641979113 L 0.9119271467210095 -1.9347850885192601 C 0.9239151855202647 -1.9274645238426658 0.9322183763279446 -1.916409979867943 0.9363454060785084 -1.9041271532293624 C 0.9550153025691506 -1.8490018272754138 0.9749626130302053 -1.794367814387007 0.9986439027893884 -1.7440573564753814 C 1.0104354163624258 -1.7190986527457852 1.0233569499862123 -1.694926049921059 1.037506766273857 -1.6751752646862217 C 1.0508704816566332 -1.6552279542251664 1.0697369033734931 -1.642109895375163 1.0710143173439057 -1.643092521506249 C 1.0749022225489084 -1.6462305319000654 1.0798784879960257 -1.6476935201649203 1.084846100525563 -1.6471589718778832 C 1.0898137130550993 -1.646624423590846 1.0943648047362884 -1.644136228065431 1.097496091576685 -1.6402429057260983 L 1.0998052629847381 -1.636705451654187 L 1.1113019887184494 -1.6128276366687864 C 1.1593524065285763 -1.5132876095897307 1.2253848825375846 -1.4343335999569344 1.3121016386059634 -1.357590499119084 L 1.5589864540414327 -1.1098213201656364 L 1.5022889262777455 -1.1247572373581507 C 1.5341260129249459 -1.13350260992482 1.5687635840457428 -1.1258381261023453 1.5876300057626027 -1.1139974812227535 C 1.6089529928071784 -1.1027464120218138 1.6228571525620514 -1.089874009704582 1.6360734740251643 -1.0775420517594467 C 1.6613269655940857 -1.0527307419495147 1.6804881751502716 -1.0282142199789073 1.6995511220933486 -1.004876849365604 C 1.7182701498905455 -0.9815886100588553 1.7363013393959819 -0.9591356029635305 1.754136003675201 -0.9412518073777578 C 1.7711845670495503 -0.9227784361133322 1.7915249279630399 -0.9117238921386095 1.7935884428383213 -0.9123625991238153 C 1.798844875779998 -0.9140725592557395 1.8045898249290755 -0.9133521894564822 1.8092613296291506 -0.9103973468616422 L 1.819480641392449 -0.9039611457030263 C 1.9212315772664503 -0.8396482654234196 2.010552292582208 -0.7663934873509248 2.106800522122125 -0.7265479977353699 C 2.1134332485069587 -0.7237966445683277 2.119623793132803 -0.7196204835112097 2.124536923788235 -0.7149530093885499 C 2.159960595813902 -0.6807084887201871 2.2009852367867606 -0.6610559660984583 2.2551279366096235 -0.6460709175993902 C 2.3082880103014 -0.6313315256330929 2.376433132492245 -0.6143812248718525 2.4343589429197907 -0.5752235735480573 L 2.381444525760786 -0.5799893102838265 C 2.429986256636456 -0.6015088225546199 2.483834168619993 -0.5879485819456276 2.5166047500917266 -0.571489594249929 C 2.5514388464387405 -0.5547849500214586 2.5780188832846287 -0.5351324273997307 2.6032723748535505 -0.5177890761860553 C 2.6281819472765924 -0.500249199746162 2.6517158431161123 -0.484625444261888 2.672301860562373 -0.47588007169521696 C 2.6937722415266117 -0.46723296174165707 2.7057602803258662 -0.46664338606300504 2.7175517938989042 -0.47185130455776303 L 2.7181905008841105 -0.47209696109053567 C 2.7336177311421674 -0.478827950088478 2.7507154258230724 -0.4778944552639457 2.7647669794976077 -0.47106520365289395 C 2.8090834180096063 -0.4493491661558835 2.860867815117862 -0.44207773278584384 2.9199727769027115 -0.4379998343418352 C 2.9786355569285723 -0.4336762793650557 3.0459454469079934 -0.4301388252931435 3.112321842062883 -0.4068014546798411 L 3.1049521460797345 -0.40881583824856804 C 3.2233585948756507 -0.38429931627796066 3.340536761007709 -0.36803685380848083 3.451819170353249 -0.3863628311532423 C 3.4637089465393944 -0.3883772147219693 3.4756478540320948 -0.3862645685401338 3.485719771875731 -0.38120404396503904 C 3.5285131398845455 -0.3594880064680286 3.5772513959864334 -0.3577684107386272 3.6331136915386977 -0.36852816687402346 C 3.688779461864745 -0.3788457412504309 3.748670524554463 -0.39933349608358437 3.8187317677009265 -0.4098967269927627 L 3.7996196894512946 -0.40395183889968944 C 3.871351397020605 -0.44310949022348467 3.9536463354990947 -0.4366732890648679 4.008280348387501 -0.43470803680269476 C 4.066599209267482 -0.43284104715363103 4.097994114155694 -0.43981769268434423 4.130568170401209 -0.46629946691712476 C 4.178176406452347 -0.5109598245750036 4.253150780254242 -0.5505105263512329 4.321197639831979 -0.5601893937424345 C 4.389735812475259 -0.5721774325416895 4.448889905566663 -0.5704578368122872 4.495515515486714 -0.5837724208885096 L 4.497382505135778 -0.584312865260606 L 4.500625171368363 -0.5850498348589221 C 4.542091994100211 -0.5924686621486241 4.5902406745234465 -0.6204243755780325 4.640207213289193 -0.6500505534302894 C 4.691500297331904 -0.6780062668596987 4.744021664038476 -0.7171639181834939 4.824154825028574 -0.7268427855746955 L 4.796002586372948 -0.7162795546655154 C 4.897213077874851 -0.7906643527887587 5.008495487220391 -0.8306572363239777 5.089513011728469 -0.895215773136357 C 5.092510021428282 -0.8975740758509643 5.095703556354313 -0.8995884594196921 5.098995353893453 -0.9012097925359841 L 5.0998305861048765 -0.9015537116818644 C 5.195538371272696 -0.947245826777384 5.279798562013358 -1.0181423021352707 5.352316370487538 -1.100486371920315 C 5.354576410589037 -1.1030411998611394 5.35757342028885 -1.1057434217216269 5.360079116923121 -1.1078069365969094 C 5.396976728145416 -1.1367452761574048 5.432646056703854 -1.1810125833628486 5.469691061845814 -1.2249851027289669 C 5.48841008964301 -1.2471924532915208 5.507571299199196 -1.2700385108392807 5.529729518455196 -1.292786305773931 C 5.552329919470183 -1.315190181562703 5.576305997068693 -1.3390679965481027 5.615954961458031 -1.357443105199419 L 5.588932742853154 -1.3329757145353671 C 5.647890310718339 -1.4362005896059973 5.712301453611056 -1.5409976664863674 5.818965520140489 -1.6209343022502498 L 5.866180705739193 -1.6294831495907012 C 5.839305881053979 -1.632332765370852 5.841860708994804 -1.6236365241107373 5.8465281831174645 -1.6306131696414505 C 5.851785232918776 -1.6373441586393929 5.8581231714642845 -1.6472686825633653 5.86421545347702 -1.6584706204577513 C 5.876449148809046 -1.6810218901661846 5.887700218009987 -1.7078475835448446 5.899098681130589 -1.7345258830038421 L 5.9345714844628095 -1.8179508415330812 C 5.941056816927979 -1.8322971830469426 5.947886068539031 -1.8468400497870219 5.956926228945026 -1.8625129365778506 C 5.966359439803456 -1.8776453789965828 5.974122186239039 -1.8951361241299214 6.002864000573317 -1.91660650509416 L 5.991170749613389 -1.906632849863633 C 6.002077899668448 -1.9194069895677561 6.015245089825006 -1.9435795923924823 6.0262013711866205 -1.9676048012975462 C 6.037501571694114 -1.9921213232681527 6.047966539990185 -2.018308309661607 6.058333245673147 -2.0449374778140497 L 6.090170332320348 -2.1268393658401044 C 6.101716189360613 -2.154942473189177 6.1124268141894555 -2.1826033987792597 6.131489761132532 -2.2145878793461238 L 6.1398420832467675 -2.228590301714105 C 6.140284265005756 -2.2294255339255287 6.141414285056506 -2.2296711904583004 6.142200385961375 -2.229179877392758 L 6.143084749479353 -2.227951594728899 C 6.143281274705569 -2.2266741807584873 6.160084181547148 -2.257676035194264 6.166962564464753 -2.281111668420676 C 6.1758553309510855 -2.306659947828923 6.183618077386669 -2.334075216886235 6.191036904676372 -2.361834405089427 L 6.232847646554099 -2.5331061397377943 C 6.241133187191075 -2.562088320439408 6.270837977182072 -2.5793449127362242 6.300118920721896 -2.572186468262348 C 6.32939986426172 -2.5650280237884715 6.347792389989142 -2.5360128635532777 6.341771753185031 -2.506476971585353 Z" fill="#3682ae" transform="matrix(1,0,0,1,0,0)" fill-rule="nonzero"></path></g></g></g><defs><clipPath id="SvgjsClipPath1001"><path d=" M 0.46562615787313444 -6.251341027117824 h 6.019709598316231 v 6.001341027117824 h -6.019709598316231 Z"></path></clipPath><clipPath id="a425d168d-0d4a-428b-ada5-ca6b45ad73b3939be618-7a20-4574-ac95-c37ff0c735b5"><path d=" M 0.4656183579815491 -0.24997432415844578 L 6.485333430936761 -0.24997432415844578 L 6.485333430936761 -6.251314288462342 L 0.4656183579815491 -6.251314288462342 Z"></path></clipPath></defs></svg>